<mxfile host="65bd71144e">
    <diagram id="u8DI_vcG08LwfK-7niej" name="Page-1">
        <mxGraphModel dx="1674" dy="2058" grid="1" gridSize="10" guides="1" tooltips="1" connect="1" arrows="1" fold="1" page="1" pageScale="1" pageWidth="850" pageHeight="1100" math="0" shadow="0">
            <root>
                <mxCell id="0"/>
                <mxCell id="1" parent="0"/>
                <mxCell id="22" value="&lt;div style=&quot;color: rgb(219, 222, 228); background-color: rgb(34, 42, 56); font-family: &amp;quot;Fira Code&amp;quot;, Consolas, &amp;quot;Courier New&amp;quot;, monospace; font-size: 14px; line-height: 19px;&quot;&gt;Administrator systemu&lt;/div&gt;" style="shape=umlActor;verticalLabelPosition=bottom;verticalAlign=top;html=1;outlineConnect=0;fontColor=#E2E2E4;" vertex="1" parent="1">
                    <mxGeometry x="-90" y="550" width="30" height="60" as="geometry"/>
                </mxCell>
                <mxCell id="23" value="&lt;div style=&quot;color: rgb(219, 222, 228); background-color: rgb(34, 42, 56); font-family: &amp;quot;Fira Code&amp;quot;, Consolas, &amp;quot;Courier New&amp;quot;, monospace; font-size: 14px; line-height: 19px;&quot;&gt;Inne systemy lub urządzenie&lt;/div&gt;" style="shape=umlActor;verticalLabelPosition=bottom;verticalAlign=top;html=1;outlineConnect=0;fontColor=#E2E2E4;" vertex="1" parent="1">
                    <mxGeometry x="270" y="710" width="30" height="60" as="geometry"/>
                </mxCell>
                <mxCell id="24" value="&lt;div style=&quot;color: rgb(219, 222, 228); background-color: rgb(34, 42, 56); font-family: &amp;quot;Fira Code&amp;quot;, Consolas, &amp;quot;Courier New&amp;quot;, monospace; font-size: 14px; line-height: 19px;&quot;&gt;Użytkownicy stacji&amp;nbsp;&lt;span style=&quot;&quot;&gt;meteorologicznej&lt;/span&gt;&amp;nbsp;&lt;/div&gt;" style="shape=umlActor;verticalLabelPosition=bottom;verticalAlign=top;html=1;outlineConnect=0;fontColor=#E2E2E4;" vertex="1" parent="1">
                    <mxGeometry x="680" y="550" width="30" height="60" as="geometry"/>
                </mxCell>
                <mxCell id="30" value="" style="endArrow=classic;startArrow=classic;html=1;fontColor=#E2E2E4;exitX=0.5;exitY=0.5;exitDx=0;exitDy=0;exitPerimeter=0;entryX=0;entryY=0.5;entryDx=0;entryDy=0;" edge="1" parent="1" source="22" target="3">
                    <mxGeometry width="50" height="50" relative="1" as="geometry">
                        <mxPoint x="180" y="490" as="sourcePoint"/>
                        <mxPoint x="230" y="440" as="targetPoint"/>
                    </mxGeometry>
                </mxCell>
                <mxCell id="33" value="" style="group" vertex="1" connectable="0" parent="1">
                    <mxGeometry x="135" y="310" width="300" height="140" as="geometry"/>
                </mxCell>
                <mxCell id="2" value="" style="rounded=0;whiteSpace=wrap;html=1;" vertex="1" parent="33">
                    <mxGeometry width="300" height="140" as="geometry"/>
                </mxCell>
                <mxCell id="3" value="&lt;div style=&quot;background-color: rgb(34, 42, 56); font-family: &amp;quot;Fira Code&amp;quot;, Consolas, &amp;quot;Courier New&amp;quot;, monospace; font-size: 14px; line-height: 19px;&quot;&gt;&lt;font color=&quot;#e2e2e4&quot;&gt;Konfiguracja&amp;nbsp;automatycznej&amp;nbsp;&lt;br&gt;stacji&amp;nbsp;meteorologicznej&lt;/font&gt;&lt;/div&gt;" style="text;html=1;strokeColor=none;fillColor=none;align=center;verticalAlign=middle;whiteSpace=wrap;rounded=0;" vertex="1" parent="33">
                    <mxGeometry width="300" height="140" as="geometry"/>
                </mxCell>
                <mxCell id="37" value="" style="group" vertex="1" connectable="0" parent="1">
                    <mxGeometry x="470" y="-210" width="190" height="120" as="geometry"/>
                </mxCell>
                <mxCell id="35" value="" style="rounded=0;whiteSpace=wrap;html=1;fontColor=#E2E2E4;" vertex="1" parent="37">
                    <mxGeometry width="190" height="120" as="geometry"/>
                </mxCell>
                <mxCell id="36" value="&lt;span style=&quot;color: rgb(183, 138, 255); font-family: &amp;quot;Fira Code&amp;quot;, Consolas, &amp;quot;Courier New&amp;quot;, monospace; font-size: 14px; text-align: left; background-color: rgb(34, 42, 56);&quot;&gt;Wybór języka i regionu&lt;/span&gt;" style="text;html=1;strokeColor=none;fillColor=none;align=center;verticalAlign=middle;whiteSpace=wrap;rounded=0;fontColor=#E2E2E4;" vertex="1" parent="37">
                    <mxGeometry width="190" height="120" as="geometry"/>
                </mxCell>
                <mxCell id="38" value="" style="group" vertex="1" connectable="0" parent="1">
                    <mxGeometry x="650" width="190" height="120" as="geometry"/>
                </mxCell>
                <mxCell id="39" value="" style="rounded=0;whiteSpace=wrap;html=1;fontColor=#E2E2E4;" vertex="1" parent="38">
                    <mxGeometry width="190" height="120" as="geometry"/>
                </mxCell>
                <mxCell id="40" value="&lt;span style=&quot;color: rgb(183, 138, 255); font-family: &amp;quot;Fira Code&amp;quot;, Consolas, &amp;quot;Courier New&amp;quot;, monospace; font-size: 14px; text-align: left; background-color: rgb(34, 42, 56);&quot;&gt;Wybór rodzaju połączenia&lt;/span&gt;" style="text;html=1;strokeColor=none;fillColor=none;align=center;verticalAlign=middle;whiteSpace=wrap;rounded=0;fontColor=#E2E2E4;" vertex="1" parent="38">
                    <mxGeometry width="190" height="120" as="geometry"/>
                </mxCell>
                <mxCell id="41" value="" style="group" vertex="1" connectable="0" parent="1">
                    <mxGeometry x="810" y="220" width="190" height="120" as="geometry"/>
                </mxCell>
                <mxCell id="42" value="" style="rounded=0;whiteSpace=wrap;html=1;fontColor=#E2E2E4;" vertex="1" parent="41">
                    <mxGeometry width="190" height="120" as="geometry"/>
                </mxCell>
                <mxCell id="43" value="&lt;span style=&quot;color: rgb(183, 138, 255); font-family: &amp;quot;Fira Code&amp;quot;, Consolas, &amp;quot;Courier New&amp;quot;, monospace; font-size: 14px; text-align: left; background-color: rgb(34, 42, 56);&quot;&gt;Wybór preferencji danych&lt;/span&gt;" style="text;html=1;strokeColor=none;fillColor=none;align=center;verticalAlign=middle;whiteSpace=wrap;rounded=0;fontColor=#E2E2E4;" vertex="1" parent="41">
                    <mxGeometry width="190" height="120" as="geometry"/>
                </mxCell>
                <mxCell id="44" value="" style="group" vertex="1" connectable="0" parent="1">
                    <mxGeometry x="190" y="-250" width="190" height="120" as="geometry"/>
                </mxCell>
                <mxCell id="45" value="" style="rounded=0;whiteSpace=wrap;html=1;fontColor=#E2E2E4;" vertex="1" parent="44">
                    <mxGeometry width="190" height="120" as="geometry"/>
                </mxCell>
                <mxCell id="46" value="&lt;span style=&quot;color: rgb(183, 138, 255); font-family: &amp;quot;Fira Code&amp;quot;, Consolas, &amp;quot;Courier New&amp;quot;, monospace; font-size: 14px; text-align: left; background-color: rgb(34, 42, 56);&quot;&gt;Wybór częstotliwości aktualizacji&lt;/span&gt;" style="text;html=1;strokeColor=none;fillColor=none;align=center;verticalAlign=middle;whiteSpace=wrap;rounded=0;fontColor=#E2E2E4;" vertex="1" parent="44">
                    <mxGeometry width="190" height="120" as="geometry"/>
                </mxCell>
                <mxCell id="47" value="" style="group" vertex="1" connectable="0" parent="1">
                    <mxGeometry x="-110" y="-210" width="190" height="120" as="geometry"/>
                </mxCell>
                <mxCell id="48" value="" style="rounded=0;whiteSpace=wrap;html=1;fontColor=#E2E2E4;" vertex="1" parent="47">
                    <mxGeometry width="190" height="120" as="geometry"/>
                </mxCell>
                <mxCell id="49" value="&lt;span style=&quot;color: rgb(183, 138, 255); font-family: &amp;quot;Fira Code&amp;quot;, Consolas, &amp;quot;Courier New&amp;quot;, monospace; font-size: 14px; text-align: left; background-color: rgb(34, 42, 56);&quot;&gt;Ustawienie stacji&lt;/span&gt;" style="text;html=1;strokeColor=none;fillColor=none;align=center;verticalAlign=middle;whiteSpace=wrap;rounded=0;fontColor=#E2E2E4;" vertex="1" parent="47">
                    <mxGeometry width="190" height="120" as="geometry"/>
                </mxCell>
                <mxCell id="50" value="" style="group" vertex="1" connectable="0" parent="1">
                    <mxGeometry x="-300" width="190" height="120" as="geometry"/>
                </mxCell>
                <mxCell id="51" value="" style="rounded=0;whiteSpace=wrap;html=1;fontColor=#E2E2E4;" vertex="1" parent="50">
                    <mxGeometry width="190" height="120" as="geometry"/>
                </mxCell>
                <mxCell id="52" value="&lt;span style=&quot;color: rgb(183, 138, 255); font-family: &amp;quot;Fira Code&amp;quot;, Consolas, &amp;quot;Courier New&amp;quot;, monospace; font-size: 14px; text-align: left; background-color: rgb(34, 42, 56);&quot;&gt;Pobieranie i wysyłanie danych&lt;/span&gt;" style="text;html=1;strokeColor=none;fillColor=none;align=center;verticalAlign=middle;whiteSpace=wrap;rounded=0;fontColor=#E2E2E4;" vertex="1" parent="50">
                    <mxGeometry width="190" height="120" as="geometry"/>
                </mxCell>
                <mxCell id="53" value="" style="group" vertex="1" connectable="0" parent="1">
                    <mxGeometry x="-330" y="220" width="190" height="120" as="geometry"/>
                </mxCell>
                <mxCell id="54" value="" style="rounded=0;whiteSpace=wrap;html=1;fontColor=#E2E2E4;" vertex="1" parent="53">
                    <mxGeometry width="190" height="120" as="geometry"/>
                </mxCell>
                <mxCell id="55" value="&lt;span style=&quot;color: rgb(183, 138, 255); font-family: &amp;quot;Fira Code&amp;quot;, Consolas, &amp;quot;Courier New&amp;quot;, monospace; font-size: 14px; text-align: left; background-color: rgb(34, 42, 56);&quot;&gt;Monitorowanie połączenia&lt;/span&gt;" style="text;html=1;strokeColor=none;fillColor=none;align=center;verticalAlign=middle;whiteSpace=wrap;rounded=0;fontColor=#E2E2E4;" vertex="1" parent="53">
                    <mxGeometry width="190" height="120" as="geometry"/>
                </mxCell>
                <mxCell id="56" value="" style="endArrow=classic;html=1;fontColor=#E2E2E4;exitX=0.5;exitY=0.5;exitDx=0;exitDy=0;exitPerimeter=0;entryX=0.5;entryY=1;entryDx=0;entryDy=0;" edge="1" parent="1" source="23" target="3">
                    <mxGeometry width="50" height="50" relative="1" as="geometry">
                        <mxPoint x="450" y="630" as="sourcePoint"/>
                        <mxPoint x="500" y="580" as="targetPoint"/>
                    </mxGeometry>
                </mxCell>
                <mxCell id="57" value="" style="endArrow=classic;html=1;fontColor=#E2E2E4;exitX=0.5;exitY=0.5;exitDx=0;exitDy=0;exitPerimeter=0;entryX=1;entryY=0.5;entryDx=0;entryDy=0;" edge="1" parent="1" source="24" target="3">
                    <mxGeometry width="50" height="50" relative="1" as="geometry">
                        <mxPoint x="385" y="759.9999999999995" as="sourcePoint"/>
                        <mxPoint x="385" y="489.99999999999955" as="targetPoint"/>
                    </mxGeometry>
                </mxCell>
                <mxCell id="58" value="" style="endArrow=classic;html=1;fontColor=#E2E2E4;exitX=0;exitY=0;exitDx=0;exitDy=0;entryX=1;entryY=0.5;entryDx=0;entryDy=0;" edge="1" parent="1" source="3" target="55">
                    <mxGeometry relative="1" as="geometry">
                        <mxPoint x="410" y="340" as="sourcePoint"/>
                        <mxPoint x="510" y="340" as="targetPoint"/>
                    </mxGeometry>
                </mxCell>
                <mxCell id="59" value="&amp;lt;&amp;lt;include&amp;gt;&amp;gt;" style="edgeLabel;resizable=0;html=1;align=center;verticalAlign=middle;fontColor=#E2E2E4;" connectable="0" vertex="1" parent="58">
                    <mxGeometry relative="1" as="geometry"/>
                </mxCell>
                <mxCell id="60" value="" style="endArrow=classic;html=1;fontColor=#E2E2E4;exitX=0.101;exitY=0.005;exitDx=0;exitDy=0;entryX=1;entryY=0.5;entryDx=0;entryDy=0;exitPerimeter=0;" edge="1" parent="1" source="3" target="52">
                    <mxGeometry relative="1" as="geometry">
                        <mxPoint x="235" y="349.99999999999955" as="sourcePoint"/>
                        <mxPoint x="10" y="229.99999999999955" as="targetPoint"/>
                    </mxGeometry>
                </mxCell>
                <mxCell id="61" value="&amp;lt;&amp;lt;include&amp;gt;&amp;gt;" style="edgeLabel;resizable=0;html=1;align=center;verticalAlign=middle;fontColor=#E2E2E4;" connectable="0" vertex="1" parent="60">
                    <mxGeometry relative="1" as="geometry"/>
                </mxCell>
                <mxCell id="62" value="" style="endArrow=classic;html=1;fontColor=#E2E2E4;exitX=0.216;exitY=-0.012;exitDx=0;exitDy=0;entryX=0.5;entryY=1;entryDx=0;entryDy=0;exitPerimeter=0;" edge="1" parent="1" source="3" target="49">
                    <mxGeometry relative="1" as="geometry">
                        <mxPoint x="310" y="349.99999999999955" as="sourcePoint"/>
                        <mxPoint y="59.999999999999545" as="targetPoint"/>
                    </mxGeometry>
                </mxCell>
                <mxCell id="63" value="&amp;lt;&amp;lt;include&amp;gt;&amp;gt;" style="edgeLabel;resizable=0;html=1;align=center;verticalAlign=middle;fontColor=#E2E2E4;" connectable="0" vertex="1" parent="62">
                    <mxGeometry relative="1" as="geometry"/>
                </mxCell>
                <mxCell id="64" value="" style="endArrow=classic;html=1;fontColor=#E2E2E4;exitX=0.5;exitY=0;exitDx=0;exitDy=0;entryX=0.5;entryY=1;entryDx=0;entryDy=0;" edge="1" parent="1" source="3" target="46">
                    <mxGeometry relative="1" as="geometry">
                        <mxPoint x="385" y="349.99999999999955" as="sourcePoint"/>
                        <mxPoint x="100" y="-90" as="targetPoint"/>
                    </mxGeometry>
                </mxCell>
                <mxCell id="65" value="&amp;lt;&amp;lt;include&amp;gt;&amp;gt;" style="edgeLabel;resizable=0;html=1;align=center;verticalAlign=middle;fontColor=#E2E2E4;" connectable="0" vertex="1" parent="64">
                    <mxGeometry relative="1" as="geometry"/>
                </mxCell>
                <mxCell id="66" value="" style="endArrow=classic;html=1;fontColor=#E2E2E4;exitX=0.686;exitY=0.005;exitDx=0;exitDy=0;entryX=0.5;entryY=1;entryDx=0;entryDy=0;exitPerimeter=0;" edge="1" parent="1" source="3" target="36">
                    <mxGeometry relative="1" as="geometry">
                        <mxPoint x="385" y="349.99999999999955" as="sourcePoint"/>
                        <mxPoint x="295" y="-100" as="targetPoint"/>
                    </mxGeometry>
                </mxCell>
                <mxCell id="67" value="&amp;lt;&amp;lt;include&amp;gt;&amp;gt;" style="edgeLabel;resizable=0;html=1;align=center;verticalAlign=middle;fontColor=#E2E2E4;" connectable="0" vertex="1" parent="66">
                    <mxGeometry relative="1" as="geometry"/>
                </mxCell>
                <mxCell id="68" value="" style="endArrow=classic;html=1;fontColor=#E2E2E4;exitX=0.84;exitY=-0.02;exitDx=0;exitDy=0;entryX=0.5;entryY=1;entryDx=0;entryDy=0;exitPerimeter=0;" edge="1" parent="1" source="3" target="40">
                    <mxGeometry relative="1" as="geometry">
                        <mxPoint x="440.8000000000002" y="350.69999999999936" as="sourcePoint"/>
                        <mxPoint x="507.34000000000015" y="-86.96000000000004" as="targetPoint"/>
                    </mxGeometry>
                </mxCell>
                <mxCell id="69" value="&amp;lt;&amp;lt;include&amp;gt;&amp;gt;" style="edgeLabel;resizable=0;html=1;align=center;verticalAlign=middle;fontColor=#E2E2E4;" connectable="0" vertex="1" parent="68">
                    <mxGeometry relative="1" as="geometry"/>
                </mxCell>
                <mxCell id="70" value="" style="endArrow=classic;html=1;fontColor=#E2E2E4;exitX=1;exitY=0;exitDx=0;exitDy=0;entryX=0;entryY=0.5;entryDx=0;entryDy=0;" edge="1" parent="1" source="3" target="43">
                    <mxGeometry relative="1" as="geometry">
                        <mxPoint x="487" y="347.1999999999998" as="sourcePoint"/>
                        <mxPoint x="670" y="70.00000000000045" as="targetPoint"/>
                    </mxGeometry>
                </mxCell>
                <mxCell id="71" value="&amp;lt;&amp;lt;include&amp;gt;&amp;gt;" style="edgeLabel;resizable=0;html=1;align=center;verticalAlign=middle;fontColor=#E2E2E4;" connectable="0" vertex="1" parent="70">
                    <mxGeometry relative="1" as="geometry"/>
                </mxCell>
            </root>
        </mxGraphModel>
    </diagram>
</mxfile>